<svg xmlns="http://www.w3.org/2000/svg" viewBox="0 0 1824.12 727.7"><defs><style>.cls-1{fill:#fff;}</style></defs><g id="Layer_2" data-name="Layer 2"><g id="Layer_1-2" data-name="Layer 1"><path class="cls-1" d="M511.64,682.46c-14.45-7.7-28.52-16.25-43.41-23-66.38-29.88-135.9-50.62-206-69.35-26.38-7-53-13.3-80.38-20.14L112.13,140.53l75.35,13.86v9c-2.46.43-4.54,1.34-6.42,1-10-1.6-20-3.55-30-5.29-7.55-1.31-15.12-2.5-24.65-4.07,6.44,46.18,14.51,90.78,21.52,135.53,7.06,45,14.63,89.92,22,134.88s14.6,89.89,22,135.25c19.1,4.73,37.78,9.2,56.37,14,71,18.3,141.18,39.06,209,67.29,26.58,11.06,52.58,23.35,76.48,39.6,7.8,5.3,15.19,11.22,23.25,17.23a22.7,22.7,0,0,0,4.19-2.27c27.25-22.74,58.59-38.39,90.94-52.18,66.59-28.38,135.74-49,205.62-67.37,21.31-5.59,42.75-10.7,65.36-16.33,21.78-134.25,43.58-268.66,65.68-404.87-5.38.46-9.4.51-13.3,1.2-12.07,2.15-24.07,4.7-36.16,6.75-3.62.61-7.44.09-11.91.09v-9.45l75.37-13.91-69.66,429.4c-114,28.28-227.25,56.41-331,112.38,121.12-35.94,246.08-46,371.64-54.92,25-146.42,49.88-291.75,75-438.75l-27.09,3.47c-.87-3.27-1.57-5.94-2.71-10.23l40.77-7c.82.91,1.08,1.16,1.28,1.44a1.82,1.82,0,0,1,.46.89,37.39,37.39,0,0,1-.14,6.27c-25.91,151.24-51.87,302.47-78,455-91.49,5.34-182.48,13.33-272.5,30.57,98-9.94,195.47-8.27,293.36,12.16,2.18-12,4.42-23.53,6.39-35.14q15.66-92.76,31.21-185.55,15.1-90.19,30.13-180.42c4.75-28.33,9.67-56.64,14.51-85a32.55,32.55,0,0,1,1-5.15c2.21-6.34,7.88-9.76,14.87-9.14,6.69.59,11.51,5.36,12.12,12.32a29.56,29.56,0,0,1-.37,7.33c-6.6,39-13.35,78.06-19.9,117.11-8.11,48.37-16,96.78-24.13,145.16q-9.51,57-19.18,114-10.17,60.11-20.45,120.19c-2.37,13.9-8.48,18.09-21.89,14.73-45.42-11.4-91.66-16.37-138.32-19-45-2.56-89.8-1.08-134.52,2.95A992.5,992.5,0,0,0,566,725.83a46.91,46.91,0,0,1-25.66.16A993.66,993.66,0,0,0,391.74,697.8c-44.29-5-88.82-7.69-133.39-6.17C204,693.48,149.9,698.35,97,711.94c-11.72,3-18-1-20.11-13.31-3.57-21.07-6.47-42.25-9.66-63.38Q57.05,568.2,46.94,501.16q-8.84-58.74-17.58-117.5Q19.22,316.1,9,248.54c-2.44-16.29-4.74-32.6-7.2-48.88A40.87,40.87,0,0,0,0,193.76V183.23a60.72,60.72,0,0,1,4-4.71c8.37-8.05,21.23-4.81,23.78,6.58,2.67,12,4.1,24.17,5.93,36.3Q43,282.72,52.18,344.05C58.83,388.76,65.3,433.49,72,478.19c5.91,39.5,12,79,18,118.45,3.82,25.29,7.5,50.61,11.3,75.9.35,2.35,1.06,4.65,1.94,8.4a872.75,872.75,0,0,1,155.57-17.5c51.94-1.2,103.68,2.08,155.23,8.71l.3-2.26c-23.07-3.68-46.1-7.67-69.22-11q-35.37-5.05-70.9-9-35-3.9-70.15-6.71c-23.73-1.89-47.52-3.13-72.56-4.74-26.35-154.14-52.65-308-79.2-463.25a279.61,279.61,0,0,1,42.5,6.7c-.23,3.3-.43,6.1-.71,10l-25.86-2.83c-1,7.89,69,422.87,73.89,438.14,5,.56,10.5,1.31,16,1.75,38.43,3.09,77,5.13,115.28,9.35C351.84,647,430,657.55,505.62,681.26a43.41,43.41,0,0,0,6.17,1c.48.41,1,.82.36.3C513,682.81,512.3,682.63,511.64,682.46Zm-90.09-10.31.08,1.08h3.75l0-.73Zm279.39-1.49c-1.1.13-.55.07,0,0Z"/><path class="cls-1" d="M415,471.63c-1.17-1.06-2.83-1.89-3.46-3.21-13.45-28.57-25.65-57.67-31.68-88.81-5.29-27.31-8.11-54.71.65-82.13a147.07,147.07,0,0,1,31-54.39c15.25-16.88,30.64-34,48-48.59,43.31-36.58,66.42-84.19,79-137.95,3.83-16.33,6.16-33,9.24-49.51.45-2.38,1.27-4.7,1.92-7h4.21c.84,1.07,1.45,2.5,2.54,3.15,27.55,16.51,49.37,39.14,68.39,64.6,24.76,33.12,43.57,69.17,54.61,109.33,13.22,48,1.52,89.73-29.21,127.57Q613.42,350,577.52,396c-17.32,22.14-25.37,47.42-22.78,75.62a142.22,142.22,0,0,0,16.82,56c9.46,17.15,20.37,33.49,30.63,50.2,1.88,3.07,3.66,6.21,5.49,9.32l-1.56,2.05c-8-1.81-16.16-3.37-24.14-5.47-28-7.36-54.64-17.75-78.22-35q-57.09-41.62-57.7-112.3c-.45-43.61,12.68-82.13,42.32-114.4,16.84-18.32,34.74-35.68,51.57-54,10.87-11.84,22-23.82,30.63-37.24,12.76-19.78,12.28-42.16,8.43-65.68-18.67,26.76-42.69,46.22-66.4,65.9-12.39,10.28-25.87,19.25-38.57,29.19-38.5,30.13-61.4,69.15-67.7,118-3.79,29.45.43,58,7.22,86.41.56,2.35.86,4.76,1.28,7.15Z"/><path class="cls-1" d="M588.65,517.16c81.21-55.4,123.23-128.2,106.68-230,3.38,2.69,5.39,3.76,6.68,5.39,29.73,37.56,43,80,36.17,127.74C730,477.54,703,525.33,662.36,565.84a95.88,95.88,0,0,1-15.6,12.41c-8.82,5.71-13.11,5.26-20.45-2.13C609.77,559.48,598.49,539.44,588.65,517.16Z"/><path class="cls-1" d="M1523.6,694.75c-9-26.43-17.88-52.53-26.76-78.62l-1.74-.22q-13.55,39.44-27.12,79H1454.2c-10.89-34.8-21.72-69.42-32.82-104.94H1438c8,26.64,16.06,53.3,24.44,81.08,9.44-27.69,18.45-54.12,27.65-81.09l12.28-.61c9.18,26.9,18.28,53.59,27.77,81.42,8.39-27.73,16.45-54.34,24.51-81H1570c-10.17,35.64-21.81,69.88-32.44,104.93Z"/><path class="cls-1" d="M1361.19,697.48c-31.55.15-53.26-22.22-53.35-55-.1-32.16,21.56-55.14,52.07-55.27,31.51-.13,53.27,22.32,53.37,55.06C1413.38,674.63,1391.94,697.33,1361.19,697.48Zm-.73-13.38c18.42.08,32.75-11.23,35.44-29.4a87.49,87.49,0,0,0-.19-26.05c-2.43-15.31-14.28-25.46-30.35-27.87a35.2,35.2,0,0,0-36.72,18.92c-5.63,11.12-6.06,22.83-3.73,34.85C1328.42,672.69,1342,684,1360.46,684.1Z"/><path class="cls-1" d="M1216.57,618.83v75.93h-12.15c-2.16-7.54-2.84-88.3-.82-104.32a29.28,29.28,0,0,1,4.54-1,52.7,52.7,0,0,1,6.23.28l61.57,79.74V589.94h12.77V694.79l-10.21.59-59.34-77.08Z"/><path class="cls-1" d="M1303.87,134.66q-.34,32.61-.68,65.21c0,4.11,0,8.22,0,12.68h-13.44v-105l10.8-.49,61.94,80.31v-79.6H1375V212.29a37,37,0,0,1-4.86.7,50.6,50.6,0,0,1-5.72-.53c-10.79-14-21.62-28.23-32.62-42.32-9.24-11.85-18.68-23.55-28-35.32l-.35-.27Z"/><path class="cls-1" d="M1401.28,213.08V108c17.74,0,35.19-2.38,51.72.49,34.29,6,44.12,36.66,39.51,62.65-4.7,26.44-23.89,41.82-51.06,42C1428.51,213.14,1415.57,213.08,1401.28,213.08Zm15.54-11.45c10.08,0,19.56.76,28.87-.16,18.46-1.81,29.65-14.84,32-35.89s-7.07-39.09-23.35-44.93c-2.3-.82-4.71-1.8-7.09-1.85-10-.21-20.06-.09-30.43-.09Z"/><path class="cls-1" d="M1268.68,107.77v10.54h-49.61v35.21h39.73v10.73h-39.73v37.22h49.49c.28,4.05.49,7,.76,10.81h-66V107.77Z"/><path class="cls-1" d="M1200.9,372.57V267.24c15.16.31,29.72-1.58,44.26,1.3,10.5,2.08,18.19,7.71,20.41,18.64,2.3,11.31-.87,20.83-11,27.4-1.16.75-2.19,1.7-4.09,3.2a58.27,58.27,0,0,0,6.18,3.62c19.52,8.14,16.69,37.37,2.51,45.33-4.51,2.53-9.58,5.32-14.52,5.58C1230.43,373.06,1216.11,372.57,1200.9,372.57Zm9-49.83v44.18c13-1,25.34-.81,37.21-3,10.39-1.95,14.8-9.61,14.67-20.14-.15-11.92-7.74-19.69-21.86-20.84C1230.27,322.1,1220.45,322.74,1210,322.74Zm-.29-7.23c8.95,0,16.66.4,24.29-.15a37.56,37.56,0,0,0,13-3.48c8-3.73,11.35-10.77,10.53-19.82-.79-8.64-4.86-13.53-14-16.11-11.24-3.18-22.55-1.57-33.85-1.54Z"/><path class="cls-1" d="M1331.41,373V268.14a69.93,69.93,0,0,1,7.87-1c8.4-.13,16.81-.3,25.19.05a69.86,69.86,0,0,1,14.44,2.21c9.24,2.41,15.37,8.44,17.26,17.84,2,9.9-.19,18.8-8.46,25.46-1.89,1.52-3.88,2.94-6.65,5,2.4,1.43,4.22,2.7,6.19,3.66,9.51,4.63,13.94,12.19,13.77,22.74s-4.16,19.23-13.72,24.19a37.6,37.6,0,0,1-14.92,4.47C1359.16,373.42,1345.88,373,1331.41,373Zm8.78-6.06c13.4-1,25.69-.95,37.6-3.06,10-1.78,14.72-9.74,14.61-20.18-.11-9.93-4.75-16.27-14.71-19.15-12.29-3.57-24.75-1.65-37.5-1.72Zm0-51.86c3.66.18,6.42.61,9.14.4,8.64-.66,17.5-.58,25.83-2.64,9-2.21,13.27-9.94,13-19.18-.29-9.72-4.5-15-14.53-17.83-10.93-3.1-22-1.42-33.43-1.39Z"/><path class="cls-1" d="M1378.55,482.7c-.6,3.88-1,10.23-2.62,16.24-6.41,23.74-24.6,36.84-49.84,36.37-22.51-.42-40.06-14.84-45.82-37.57a70.66,70.66,0,0,1,0-35.29c6.28-24.81,25.84-38.8,52.27-37.35,23.42,1.28,42.08,19.32,45,43.66C1378.09,472.58,1378.15,476.44,1378.55,482.7Zm-8.81.14c-.48-6.64-.53-10.87-1.13-15-2.85-20-17.52-34-37-35.66-19.19-1.59-35.77,9.27-41.84,28.22-4.63,14.42-4.47,29.07,1.39,43.22,6.86,16.54,21.28,25.44,39,24.64s31.11-10.9,36.37-28.21C1368.47,493.75,1369,487,1369.74,482.84Z"/><path class="cls-1" d="M1582.19,427.31c12.42,0,23.61-.17,34.79.1a36.74,36.74,0,0,1,10.22,2.17c10.2,3.29,16.85,9.89,17.89,21,1.1,11.67-2.16,21.61-12.89,27.72-4.17,2.37-8.82,3.89-14.42,6.29,12.12,15.82,23.93,31.22,36.67,47.83l-9.11.73-37.49-48.06h-17.09v47.3h-8.57Zm9,50.11c7.88,0,15.56.69,23-.24a33.25,33.25,0,0,0,14.45-5.56c12.52-8.76,10.63-29.18-3.16-34.51-11.26-4.34-23-3.49-35.09-2,0,13.11,0,25.34,0,37.57A38.21,38.21,0,0,0,1591.18,477.42Z"/><path class="cls-1" d="M1209.5,532.63h-8.42v-105c15.1-.15,30.07-2.46,44.71,2,12,3.66,18.34,12.7,19.68,24.85,1.37,12.38-2.32,23.5-13.45,29.85-6.43,3.67-14.3,5.33-21.74,6.55-6.42,1.06-13.16.22-20.78.22Zm.14-49.69c13.77,2,24.29,1.49,31.59-1.34,10.4-4,16.4-13.39,15.74-24.62s-6.57-18.32-18.06-21.32c-9.57-2.49-19.17-1.51-29.27-.8Z"/><path class="cls-1" d="M1500,372.61V267.72h62.38v6.17h-53.35V315.6h44.41v6.68h-44.53v43.8h53.43v6.53Z"/><path class="cls-1" d="M1506.53,434v41.35H1551c.3,2.64.48,4.19.79,7h-44.94v43.8h53.45v6.43H1498V427.78h62.29V434Z"/><path class="cls-1" d="M1481,427.78l-42.83,104.75-7.83.42-42.93-104.84,8.63-.75c12.47,30.55,24.84,60.89,38.16,93.53,13.16-32.31,25.49-62.59,37.91-93.11Z"/><path class="cls-1" d="M1738.75,428l8.87-.61L1781.35,482l33.48-54.22h9.29c-10.72,17.35-20.46,33.93-31.06,49.94-5.07,7.66-7.86,15.23-7.3,24.47.59,9.73.13,19.52.13,30l-8.23.79V491.09Z"/><path class="cls-1" d="M1736.37,427.85l.45,6h-36.46v98.43h-8.7V434.43h-36c-.12-2.71-.19-4.28-.29-6.58Z"/><path class="cls-1" d="M1426.31,372.33V267.87l8.13-.65c.17,32.82,0,65.23.11,98.59h48.24c.44,2.47.73,4,1.17,6.52Z"/><path class="cls-1" d="M1293.79,267.7h7.33V372.12l-7.33.76Z"/><path class="cls-1" d="M414.84,471.78c.39.5.78,1,.31.39.17.69,0,.08-.14-.54Z"/><path class="cls-1" d="M421.55,672.15l3.87.35,0,.73h-3.75Z"/><path class="cls-1" d="M700.94,670.66Z"/><path class="cls-1" d="M511.64,682.46c.66.17,1.32.35.51.13.61.52.12.11-.36-.3Z"/><polygon class="cls-1" points="1303.87 134.66 1303.37 134.55 1303.72 134.82 1303.87 134.66"/></g></g></svg>